<?xml version="1.0" encoding="utf-8"?>
<!-- Generator: Adobe Illustrator 27.0.1, SVG Export Plug-In . SVG Version: 6.00 Build 0)  -->
<svg version="1.1" id="Layer_1" xmlns="http://www.w3.org/2000/svg" xmlns:xlink="http://www.w3.org/1999/xlink" x="0px" y="0px"
	 viewBox="0 0 201.26 144.57" style="enable-background:new 0 0 201.26 144.57;" xml:space="preserve">
<style type="text/css">
	.st0{fill:#003D6A;}
	.st1{fill:#EC6581;}
	.st2{fill:#D6DBE8;}
</style>
<g>
	<path class="st0" d="M81.55,78.31h1.03l2.73,6.78h-1.03l-0.76-2.04h-2.95l-0.78,2.04h-0.96L81.55,78.31z M80.86,82.28h2.37
		l-1.16-3.16h-0.02L80.86,82.28z"/>
	<path class="st0" d="M90.57,85.08h-0.83v-0.66h-0.02c-0.27,0.54-0.91,0.78-1.61,0.78c-1.56,0-2.33-1.2-2.33-2.58
		s0.76-2.55,2.31-2.55c0.51,0,1.27,0.19,1.63,0.77h0.02v-2.52h0.83V85.08z M88.23,84.49c1.12,0,1.54-0.94,1.54-1.85
		c0-0.96-0.45-1.86-1.59-1.86c-1.13,0-1.52,0.94-1.52,1.9C86.66,83.59,87.15,84.49,88.23,84.49z"/>
	<path class="st0" d="M94.33,85.08h-0.89l-1.88-4.91h0.93l1.42,4.09h0.02l1.38-4.09h0.87L94.33,85.08z"/>
	<path class="st0" d="M99.32,80.06c1.6,0,2.46,1.13,2.46,2.57c0,1.43-0.85,2.56-2.46,2.56c-1.6,0-2.46-1.13-2.46-2.56
		C96.86,81.19,97.71,80.06,99.32,80.06z M99.32,84.49c0.87,0,1.57-0.66,1.57-1.85s-0.7-1.86-1.57-1.86c-0.87,0-1.58,0.67-1.58,1.86
		S98.45,84.49,99.32,84.49z"/>
	<path class="st0" d="M103,78.31h0.83v4.01l2.31-2.15h1.12l-2,1.78l2.15,3.12h-1.06l-1.73-2.56l-0.78,0.7v1.86H103V78.31z"/>
	<path class="st0" d="M112.7,85.06c-0.15,0.09-0.35,0.13-0.6,0.13c-0.43,0-0.7-0.23-0.7-0.76c-0.46,0.53-1.08,0.76-1.78,0.76
		c-0.92,0-1.67-0.39-1.67-1.38c0-1.11,0.85-1.36,1.71-1.51c0.91-0.18,1.7-0.1,1.7-0.72c0-0.71-0.61-0.82-1.12-0.82
		c-0.7,0-1.22,0.21-1.26,0.93h-0.83c0.05-1.21,1.01-1.64,2.14-1.64c0.91,0,1.9,0.2,1.9,1.35v2.52c0,0.38,0,0.55,0.26,0.55
		c0.08,0,0.17-0.02,0.25-0.05V85.06z M111.35,82.55c-0.65,0.47-2.52,0.01-2.52,1.21c0,0.53,0.47,0.72,0.98,0.72
		c1.1,0,1.55-0.65,1.55-1.11V82.55z"/>
	<path class="st0" d="M114.82,80.18h1.01v0.71h-1.01v3.05c0,0.38,0.11,0.44,0.63,0.44h0.38v0.71h-0.64c-0.86,0-1.2-0.17-1.2-1.07
		v-3.12h-0.86v-0.71h0.86v-1.47h0.83V80.18z"/>
	<path class="st0" d="M117.45,83.54c0.03,0.72,0.68,0.95,1.36,0.95c0.52,0,1.22-0.11,1.22-0.73c0-1.26-3.31-0.41-3.31-2.3
		c0-0.99,1-1.4,1.89-1.4c1.13,0,2,0.34,2.07,1.54h-0.83c-0.05-0.63-0.64-0.83-1.17-0.83c-0.5,0-1.08,0.13-1.08,0.63
		c0,0.57,0.88,0.68,1.65,0.85c0.83,0.18,1.65,0.46,1.65,1.4c0,1.18-1.12,1.55-2.15,1.55c-1.13,0-2.09-0.45-2.14-1.66H117.45z"/>
	<path class="st0" d="M122.08,78.31h0.83v4.01l2.31-2.15h1.12l-2.01,1.78l2.15,3.12h-1.06l-1.73-2.56l-0.78,0.7v1.86h-0.83V78.31z"
		/>
	<path class="st0" d="M131.78,85.06c-0.15,0.09-0.35,0.13-0.6,0.13c-0.43,0-0.7-0.23-0.7-0.76c-0.46,0.53-1.08,0.76-1.78,0.76
		c-0.92,0-1.67-0.39-1.67-1.38c0-1.11,0.85-1.36,1.71-1.51c0.91-0.18,1.7-0.1,1.7-0.72c0-0.71-0.61-0.82-1.12-0.82
		c-0.7,0-1.22,0.21-1.26,0.93h-0.83c0.05-1.21,1.01-1.64,2.14-1.64c0.91,0,1.9,0.2,1.9,1.35v2.52c0,0.38,0,0.55,0.26,0.55
		c0.08,0,0.17-0.02,0.25-0.05V85.06z M130.43,82.55c-0.65,0.47-2.52,0.01-2.52,1.21c0,0.53,0.47,0.72,0.98,0.72
		c1.1,0,1.55-0.65,1.55-1.11V82.55z"/>
	<path class="st0" d="M135.71,78.31h0.83v4.01l2.31-2.15h1.12l-2,1.78l2.15,3.12h-1.06l-1.73-2.56l-0.78,0.7v1.86h-0.83V78.31z"/>
	<path class="st0" d="M145.42,85.06c-0.15,0.09-0.35,0.13-0.6,0.13c-0.43,0-0.7-0.23-0.7-0.76c-0.46,0.53-1.08,0.76-1.78,0.76
		c-0.92,0-1.67-0.39-1.67-1.38c0-1.11,0.85-1.36,1.71-1.51c0.91-0.18,1.7-0.1,1.7-0.72c0-0.71-0.61-0.82-1.12-0.82
		c-0.7,0-1.22,0.21-1.26,0.93h-0.83c0.05-1.21,1.01-1.64,2.14-1.64c0.91,0,1.9,0.2,1.9,1.35v2.52c0,0.38,0,0.55,0.26,0.55
		c0.08,0,0.17-0.02,0.25-0.05V85.06z M144.07,82.55c-0.65,0.47-2.52,0.01-2.52,1.21c0,0.53,0.47,0.72,0.98,0.72
		c1.1,0,1.54-0.65,1.54-1.11V82.55z"/>
	<path class="st0" d="M146.39,80.18h0.78v0.78h0.02c0.35-0.61,0.91-0.89,1.64-0.89c1.33,0,1.74,0.74,1.74,1.79v3.23h-0.83v-3.32
		c0-0.61-0.39-0.99-1.03-0.99c-1.01,0-1.5,0.66-1.5,1.54v2.77h-0.83V80.18z"/>
	<path class="st0" d="M155.45,81.75c-0.13-0.62-0.56-0.98-1.25-0.98c-1.2,0-1.58,0.93-1.58,1.92c0,0.91,0.42,1.79,1.48,1.79
		c0.81,0,1.28-0.45,1.39-1.2h0.85c-0.19,1.21-0.95,1.91-2.23,1.91c-1.55,0-2.37-1.03-2.37-2.51s0.78-2.63,2.39-2.63
		c1.15,0,2.05,0.52,2.18,1.69H155.45z"/>
	<path class="st0" d="M161.78,83.53c-0.22,1.09-1.02,1.67-2.16,1.67c-1.61,0-2.38-1.09-2.43-2.58c0-1.48,1-2.55,2.38-2.55
		c1.79,0,2.34,1.62,2.29,2.81h-3.79c-0.03,0.85,0.47,1.61,1.58,1.61c0.69,0,1.16-0.31,1.31-0.96H161.78z M160.98,82.16
		c-0.05-0.77-0.63-1.39-1.46-1.39c-0.86,0-1.4,0.63-1.45,1.39H160.98z"/>
	<path class="st0" d="M162.97,78.31h0.83v6.78h-0.83V78.31z"/>
	<path class="st0" d="M169.76,85.06c-0.15,0.09-0.35,0.13-0.6,0.13c-0.43,0-0.7-0.23-0.7-0.76c-0.46,0.53-1.08,0.76-1.78,0.76
		c-0.92,0-1.67-0.39-1.67-1.38c0-1.11,0.85-1.36,1.71-1.51c0.91-0.18,1.7-0.1,1.7-0.72c0-0.71-0.61-0.82-1.12-0.82
		c-0.7,0-1.22,0.21-1.26,0.93h-0.83c0.05-1.21,1.01-1.64,2.14-1.64c0.91,0,1.9,0.2,1.9,1.35v2.52c0,0.38,0,0.55,0.26,0.55
		c0.08,0,0.17-0.02,0.25-0.05V85.06z M168.41,82.55c-0.65,0.47-2.52,0.01-2.52,1.21c0,0.53,0.47,0.72,0.98,0.72
		c1.1,0,1.55-0.65,1.55-1.11V82.55z"/>
	<path class="st0" d="M170.7,80.18h0.78v1.03h0.02c0.4-0.8,0.96-1.18,1.86-1.15v0.85c-1.34,0-1.83,0.73-1.83,1.98v2.18h-0.83V80.18z
		"/>
	<path class="st0" d="M175.06,79.29h-0.83v-0.99h0.83V79.29z M174.23,80.18h0.83v4.91h-0.83V80.18z"/>
	<path class="st0" d="M177.43,85.71c0,0.87-0.47,1.25-1.21,1.25c-0.15,0-0.28-0.01-0.43-0.04v-0.69c0.06,0.01,0.12,0.02,0.17,0.02
		h0.18c0.36,0,0.47-0.17,0.47-0.67v-5.4h0.83V85.71z M177.43,79.29h-0.83v-0.99h0.83V79.29z"/>
	<path class="st0" d="M183.4,85.06c-0.15,0.09-0.35,0.13-0.6,0.13c-0.43,0-0.7-0.23-0.7-0.76c-0.46,0.53-1.08,0.76-1.78,0.76
		c-0.92,0-1.67-0.39-1.67-1.38c0-1.11,0.85-1.36,1.71-1.51c0.91-0.18,1.7-0.1,1.7-0.72c0-0.71-0.61-0.82-1.12-0.82
		c-0.7,0-1.22,0.21-1.26,0.93h-0.83c0.05-1.21,1.01-1.64,2.14-1.64c0.91,0,1.9,0.2,1.9,1.35v2.52c0,0.38,0,0.55,0.26,0.55
		c0.08,0,0.17-0.02,0.25-0.05V85.06z M182.05,82.55c-0.65,0.47-2.52,0.01-2.52,1.21c0,0.53,0.47,0.72,0.98,0.72
		c1.1,0,1.54-0.65,1.54-1.11V82.55z"/>
</g>
<g>
	<path class="st0" d="M78.69,62.83h3.43l2.59,7.39h0.03l2.45-7.39h3.43v10.75h-2.28v-7.62h-0.03l-2.71,7.62h-1.88L81,66.04h-0.03
		v7.55h-2.28V62.83z"/>
	<path class="st0" d="M92.45,62.83h2.44v10.75h-2.44V62.83z"/>
	<path class="st0" d="M96.72,62.83h2.44v8.77h5.4v1.99h-7.84V62.83z"/>
	<path class="st0" d="M110.58,62.57c3.41,0,5.45,2.48,5.45,5.68c0,3.1-2.03,5.59-5.45,5.59s-5.45-2.48-5.45-5.59
		C105.13,65.06,107.17,62.57,110.58,62.57z M110.58,71.85c2.19,0,3.01-1.81,3.01-3.6c0-1.88-0.82-3.69-3.01-3.69
		c-2.19,0-3.01,1.81-3.01,3.69C107.57,70.04,108.39,71.85,110.58,71.85z"/>
	<path class="st0" d="M122.53,73.58h-2.75l-3.6-10.75h2.51l2.47,7.56h0.03l2.5-7.56h2.51L122.53,73.58z"/>
	<path class="st0" d="M129.87,62.83h2.5l4.14,10.75h-2.53l-0.84-2.39H129l-0.87,2.39h-2.47L129.87,62.83z M129.64,69.42h2.87
		l-1.4-3.95h-0.03L129.64,69.42z"/>
	<path class="st0" d="M137.17,62.83h2.42l4.62,7.21h0.03v-7.21h2.28v10.75h-2.44l-4.61-7.2h-0.03v7.2h-2.28V62.83z"/>
	<path class="st0" d="M153.32,62.57c3.41,0,5.45,2.48,5.45,5.68c0,3.1-2.03,5.59-5.45,5.59s-5.45-2.48-5.45-5.59
		C147.88,65.06,149.91,62.57,153.32,62.57z M153.32,71.85c2.19,0,3.01-1.81,3.01-3.6c0-1.88-0.82-3.69-3.01-3.69
		c-2.19,0-3.01,1.81-3.01,3.69C150.31,70.04,151.13,71.85,153.32,71.85z"/>
	<path class="st0" d="M165.27,73.58h-2.75l-3.6-10.75h2.51l2.47,7.56h0.03l2.5-7.56h2.51L165.27,73.58z"/>
	<path class="st0" d="M169.59,62.83h2.44v10.75h-2.44V62.83z"/>
	<path class="st0" d="M181.24,66.44c-0.17-1.07-1.23-1.88-2.42-1.88c-2.19,0-3.01,1.81-3.01,3.69c0,1.79,0.82,3.6,3.01,3.6
		c1.49,0,2.33-0.98,2.51-2.41h2.36c-0.25,2.7-2.14,4.4-4.87,4.4c-3.41,0-5.45-2.48-5.45-5.59c0-3.19,2.03-5.68,5.45-5.68
		c2.42,0,4.49,1.39,4.78,3.87H181.24z M179.49,61.85h-1.54l1.49-2.14h2.44L179.49,61.85z"/>
</g>
<g>
	<path class="st0" d="M63.85,57.14c0-4.88-3.96-8.84-8.84-8.84H16.8v5.19h37.46c2.22,0,4.4,1.98,4.4,4.4v27.03h5.19V57.14z"/>
	<rect x="58.66" y="90.25" class="st1" width="5.19" height="5.54"/>
	<path class="st0" d="M53.46,95.38H25.65c-4.88,0-8.84-3.96-8.84-8.84V58.7h5.19v27.1c0,2.23,2.06,4.4,4.4,4.4h27.06V95.38z"/>
	<path class="st2" d="M29.75,84.9c0.63,0,2.75,0,2.75,0V63.89l15.67,0V84.9h5.3V61.26c0-1.4-1.15-2.55-2.55-2.55l-23.71,0l0,0
		c0,0,0,21.55,0,23.66C27.2,84.25,28.98,84.9,29.75,84.9z"/>
	<rect x="37.73" y="69.11" class="st2" width="5.23" height="15.78"/>
</g>
</svg>
